# xmcd
#
# Track frame offsets:
#	150
#	17957
#	33662
#	50182
#	65840
#	82390
#	102187
#	117422
#	137035
#	156027
#	172535
#
# Disc length: 2511 seconds
# Revision: 3
# Processed by: cddbd v1.5.2PL0 Copyright (c) Steve Scherf et al.
# Submitted via: dBpowerAMP V12.0
#
DISCID=9b09cd0b
DTITLE=Jennifer Day - The Fun Of Your Love
DYEAR=2000
DGENRE=Country
TTITLE0=The Fun Of Your Love
TTITLE1=Yeah Right
TTITLE2=Tell Me I'm One
TTITLE3=Someday
TTITLE4=Somebody Else's Guy
TTITLE5=What If It's Me?
TTITLE6=Gone By Dawn
TTITLE7=I Turn To You
TTITLE8=Disappear
TTITLE9=Fearless
TTITLE10=Completely
EXTD=
EXTT0=
EXTT1=
EXTT2=
EXTT3=
EXTT4=
EXTT5=
EXTT6=
EXTT7=
EXTT8=
EXTT9=
EXTT10=
PLAYORDER=
